<svg xmlns="http://www.w3.org/2000/svg" xmlns:xlink="http://www.w3.org/1999/xlink" width="940" zoomAndPan="magnify" viewBox="0 0 705 648.749997" height="865" preserveAspectRatio="xMidYMid meet" version="1.0"><defs><clipPath id="15ff0530fd"><path d="M 0.136719 78.035156 L 704.863281 78.035156 L 704.863281 570.597656 L 0.136719 570.597656 Z M 0.136719 78.035156 " clip-rule="nonzero"/></clipPath><clipPath id="bc994661b8"><path d="M 352 78.035156 L 704.863281 78.035156 L 704.863281 325 L 352 325 Z M 352 78.035156 " clip-rule="nonzero"/></clipPath><clipPath id="28674ea931"><path d="M 0.136719 324 L 353 324 L 353 570.597656 L 0.136719 570.597656 Z M 0.136719 324 " clip-rule="nonzero"/></clipPath><clipPath id="b7d7a75183"><path d="M 0.136719 78.035156 L 704.863281 78.035156 L 704.863281 570.597656 L 0.136719 570.597656 Z M 0.136719 78.035156 " clip-rule="nonzero"/></clipPath><clipPath id="95a6be7389"><path d="M 0.136719 324 L 353 324 L 353 570.597656 L 0.136719 570.597656 Z M 0.136719 324 " clip-rule="nonzero"/></clipPath><clipPath id="32dcb07a22"><path d="M 352 78.035156 L 704.863281 78.035156 L 704.863281 325 L 352 325 Z M 352 78.035156 " clip-rule="nonzero"/></clipPath><clipPath id="366f0fb4b7"><path d="M 0.136719 252 L 704.863281 252 L 704.863281 395 L 0.136719 395 Z M 0.136719 252 " clip-rule="nonzero"/></clipPath><clipPath id="890ad4cc11"><path d="M 282 78.035156 L 424 78.035156 L 424 570.597656 L 282 570.597656 Z M 282 78.035156 " clip-rule="nonzero"/></clipPath><clipPath id="54766d0b7d"><path d="M 0.136719 282 L 704.863281 282 L 704.863281 365 L 0.136719 365 Z M 0.136719 282 " clip-rule="nonzero"/></clipPath><clipPath id="5198db0d01"><path d="M 312 78.035156 L 395 78.035156 L 395 570.597656 L 312 570.597656 Z M 312 78.035156 " clip-rule="nonzero"/></clipPath></defs><g clip-path="url(#15ff0530fd)"><path fill="#21418e" d="M 0.421875 78.035156 L 0.421875 570.597656 L 704.578125 570.597656 L 704.578125 78.035156 L 0.421875 78.035156 " fill-opacity="1" fill-rule="nonzero"/></g><g clip-path="url(#bc994661b8)"><path fill="#f2f2f2" d="M 431.320312 324.316406 L 704.578125 133.171875 L 704.578125 78.035156 L 625.757812 78.035156 L 352.5 269.179688 L 431.320312 324.316406 " fill-opacity="1" fill-rule="nonzero"/></g><g clip-path="url(#28674ea931)"><path fill="#f2f2f2" d="M 0.421875 570.597656 L 79.242188 570.597656 L 352.5 379.449219 L 273.679688 324.316406 L 0.421875 515.460938 L 0.421875 570.597656 " fill-opacity="1" fill-rule="nonzero"/></g><g clip-path="url(#b7d7a75183)"><path fill="#f2f2f2" d="M 352.5 379.449219 L 625.757812 570.597656 L 704.578125 570.597656 L 704.578125 515.460938 L 431.320312 324.316406 L 352.5 269.179688 L 79.242188 78.035156 L 0.421875 78.035156 L 0.421875 133.171875 L 273.679688 324.316406 L 352.5 379.449219 " fill-opacity="1" fill-rule="nonzero"/><path fill="#e40001" d="M 352.5 324.316406 L 704.578125 570.597656 L 704.578125 535.800781 L 401.980469 324.316406 L 352.5 324.316406 L 0.421875 78.035156 L 0.421875 113.960938 L 300.765625 324.316406 L 352.5 324.316406 " fill-opacity="1" fill-rule="nonzero"/></g><g clip-path="url(#95a6be7389)"><path fill="#e40001" d="M 0.421875 570.597656 L 52.160156 570.597656 L 352.5 361.371094 L 352.5 324.316406 L 0.421875 570.597656 " fill-opacity="1" fill-rule="nonzero"/></g><g clip-path="url(#32dcb07a22)"><path fill="#e40001" d="M 352.5 324.316406 L 704.578125 78.035156 L 652.839844 78.035156 L 352.5 288.390625 L 352.5 324.316406 " fill-opacity="1" fill-rule="nonzero"/></g><g clip-path="url(#366f0fb4b7)"><path fill="#f2f2f2" d="M 0.421875 252.898438 L 0.421875 394.605469 L 704.578125 394.605469 L 704.578125 252.898438 L 0.421875 252.898438 " fill-opacity="1" fill-rule="nonzero"/></g><g clip-path="url(#890ad4cc11)"><path fill="#f2f2f2" d="M 282.398438 78.039062 L 282.398438 570.597656 L 423.46875 570.597656 L 423.46875 78.039062 L 282.398438 78.039062 " fill-opacity="1" fill-rule="nonzero"/></g><g clip-path="url(#54766d0b7d)"><path fill="#e40001" d="M 0.421875 282.402344 L 0.421875 364.652344 L 704.578125 364.652344 L 704.578125 282.402344 L 0.421875 282.402344 " fill-opacity="1" fill-rule="nonzero"/></g><g clip-path="url(#5198db0d01)"><path fill="#e40001" d="M 312.753906 78.039062 L 312.753906 570.597656 L 394.003906 570.597656 L 394.003906 78.039062 L 312.753906 78.039062 " fill-opacity="1" fill-rule="nonzero"/></g></svg>