<svg xmlns="http://www.w3.org/2000/svg" xmlns:xlink="http://www.w3.org/1999/xlink" width="500" zoomAndPan="magnify" viewBox="0 0 375 374.999991" height="500" preserveAspectRatio="xMidYMid meet" version="1.0"><defs><clipPath id="e814b6870b"><path d="M 45 65.085938 L 329.417969 65.085938 L 329.417969 348.234375 L 45 348.234375 Z M 45 65.085938 " clip-rule="nonzero"/></clipPath><clipPath id="361f3eb795"><path d="M 0.273438 26.484375 L 374.765625 26.484375 L 374.765625 198 L 0.273438 198 Z M 0.273438 26.484375 " clip-rule="nonzero"/></clipPath></defs><g clip-path="url(#e814b6870b)"><path fill="#8f0100" d="M 191.464844 67.257812 L 327.234375 180.648438 L 327.242188 180.640625 C 328.605469 181.777344 329.308594 183.414062 329.308594 185.0625 L 329.308594 342.765625 C 329.308594 345.949219 326.730469 348.527344 323.546875 348.527344 L 220.40625 348.527344 C 217.222656 348.527344 214.644531 345.949219 214.644531 342.765625 L 214.644531 264.816406 L 160.398438 264.816406 L 160.398438 342.765625 C 160.398438 345.949219 157.816406 348.527344 154.636719 348.527344 L 51.492188 348.527344 C 48.308594 348.527344 45.730469 345.949219 45.730469 342.765625 L 45.730469 185.0625 C 45.730469 183.164062 46.648438 181.480469 48.066406 180.433594 L 183.832031 67.042969 L 183.828125 67.03125 C 186.089844 65.144531 189.375 65.285156 191.464844 67.257812 " fill-opacity="1" fill-rule="nonzero"/></g><g clip-path="url(#361f3eb795)"><path fill="#8f0100" d="M 187.519531 46.515625 L 14.527344 195.617188 C 10.941406 198.714844 5.46875 198.320312 2.367188 194.738281 C -0.738281 191.152344 -0.34375 185.671875 3.246094 182.570312 C 7.34375 179.03125 11.386719 175.421875 15.4375 171.828125 C 22.347656 165.703125 29.246094 159.5625 36.15625 153.433594 C 54.71875 136.941406 73.300781 120.472656 91.972656 104.097656 C 112.289062 86.277344 132.699219 68.460938 153.460938 51.160156 C 160.566406 45.238281 167.761719 39.285156 175.144531 33.707031 C 177.425781 31.980469 179.773438 30.238281 182.1875 28.699219 C 183.554688 27.820312 185.617188 26.53125 187.269531 26.488281 L 187.339844 26.488281 L 187.519531 26.484375 L 187.769531 26.488281 C 189.355469 26.53125 191.335938 27.871094 192.625 28.730469 C 194.957031 30.292969 197.226562 32.023438 199.453125 33.738281 C 206.753906 39.378906 213.898438 45.316406 220.972656 51.242188 C 241.785156 68.660156 262.304688 86.492188 282.753906 104.332031 C 301.53125 120.71875 320.246094 137.179688 338.9375 153.660156 C 345.863281 159.761719 352.785156 165.871094 359.714844 171.976562 C 363.730469 175.515625 367.742188 179.070312 371.792969 182.570312 C 375.382812 185.671875 375.777344 191.152344 372.675781 194.738281 C 369.570312 198.320312 364.101562 198.714844 360.511719 195.617188 L 187.519531 46.515625 " fill-opacity="1" fill-rule="evenodd"/></g><path fill="#8f0100" d="M 61.261719 62.601562 L 102.152344 62.601562 L 102.152344 116.292969 L 100.148438 118.019531 L 65.269531 148.078125 L 55.816406 156.234375 L 55.773438 143.738281 L 55.519531 68.371094 L 55.5 62.601562 L 61.261719 62.601562 " fill-opacity="1" fill-rule="nonzero"/></svg>