<svg xmlns="http://www.w3.org/2000/svg" xmlns:xlink="http://www.w3.org/1999/xlink" width="500" zoomAndPan="magnify" viewBox="0 0 375 374.999991" height="500" preserveAspectRatio="xMidYMid meet" version="1.0"><defs><clipPath id="19d1c18a54"><path d="M 37.5 47.046875 L 337.5 47.046875 L 337.5 328 L 37.5 328 Z M 37.5 47.046875 " clip-rule="nonzero"/></clipPath><clipPath id="9f20684937"><path d="M 67 125.496094 L 308 125.496094 L 308 249.246094 L 67 249.246094 Z M 67 125.496094 " clip-rule="nonzero"/></clipPath></defs><g clip-path="url(#19d1c18a54)"><path fill="#ff908f" d="M 176.882812 327.015625 C 173.886719 326.742188 170.894531 326.46875 168.171875 326.195312 C 164.90625 325.652344 161.636719 325.109375 158.371094 324.5625 C 155.105469 324.019531 151.566406 323.203125 148.296875 322.386719 C 145.03125 321.570312 142.039062 320.480469 138.769531 319.664062 C 135.503906 318.847656 132.507812 317.757812 129.515625 316.398438 C 126.519531 315.035156 123.527344 313.945312 120.53125 312.585938 C 114.269531 309.863281 108.550781 306.597656 102.5625 303.058594 C 96.574219 299.519531 91.128906 295.433594 85.957031 291.078125 C 82.144531 287.8125 78.335938 284.546875 74.796875 281.007812 C 73.164062 279.375 71.257812 277.46875 69.625 275.835938 C 67.988281 274.199219 66.355469 272.023438 64.722656 270.390625 L 64.996094 270.660156 C 62.546875 267.9375 60.09375 265.21875 57.917969 262.496094 C 55.738281 259.773438 53.832031 256.777344 52.199219 253.785156 C 50.566406 250.515625 48.933594 247.25 47.574219 243.984375 C 46.210938 240.714844 45.121094 237.722656 44.304688 234.453125 C 42.128906 227.648438 40.222656 220.570312 39.132812 213.492188 C 38.589844 209.953125 38.042969 206.6875 37.773438 203.148438 C 37.5 199.609375 37.5 195.796875 37.5 192.257812 C 37.5 185.453125 37.773438 178.375 38.316406 171.570312 C 38.859375 164.492188 40.222656 157.683594 42.128906 150.878906 C 44.035156 144.074219 46.484375 137.539062 49.207031 131.277344 C 50.566406 128.285156 52.199219 125.289062 54.105469 122.296875 C 56.011719 119.300781 57.371094 116.578125 59.277344 113.582031 C 63.089844 107.867188 67.445312 102.148438 72.074219 96.976562 C 76.429688 91.53125 81.601562 86.90625 87.320312 82.820312 C 90.3125 80.644531 93.308594 78.738281 96.300781 76.832031 C 99.296875 74.925781 102.292969 73.566406 105.285156 72.203125 C 111.273438 69.210938 117.535156 66.214844 124.070312 63.765625 C 130.601562 61.316406 137.136719 59.136719 143.941406 57.503906 C 147.210938 56.6875 150.75 55.597656 154.289062 55.054688 C 157.828125 54.507812 161.09375 53.691406 164.359375 52.875 C 167.628906 52.058594 171.4375 51.242188 174.976562 50.699219 C 178.515625 50.152344 182.054688 49.335938 185.320312 49.066406 C 192.128906 47.976562 198.933594 47.703125 205.738281 47.976562 C 213.089844 47.976562 220.441406 48.792969 227.519531 50.152344 C 234.324219 51.515625 241.128906 53.691406 247.390625 56.414062 L 257.464844 60.769531 L 267.265625 65.125 C 270.53125 66.488281 273.527344 67.847656 276.792969 69.480469 C 280.058594 71.117188 283.054688 72.75 286.046875 74.65625 C 292.039062 78.464844 297.210938 82.820312 302.109375 87.992188 C 304.558594 90.445312 306.738281 93.167969 308.914062 95.886719 C 311.09375 98.609375 313.269531 101.332031 315.175781 104.328125 C 317.082031 107.320312 318.714844 110.042969 320.347656 113.039062 C 321.984375 116.035156 323.617188 119.300781 325.25 122.566406 C 326.066406 124.199219 326.882812 125.835938 327.699219 127.738281 C 328.515625 129.644531 329.0625 130.734375 329.605469 132.09375 C 330.148438 133.457031 330.964844 135.363281 331.511719 136.996094 C 332.054688 138.628906 332.601562 140.261719 333.144531 141.894531 C 334.234375 145.164062 335.050781 148.703125 335.59375 151.96875 C 336.140625 155.507812 336.683594 159.046875 336.957031 162.585938 C 337.5 169.664062 337.226562 176.46875 337.226562 183.546875 C 337.226562 187.085938 337.226562 190.625 336.957031 194.164062 C 336.683594 197.703125 336.410156 201.515625 335.59375 205.054688 C 335.59375 204.78125 335.59375 204.78125 335.59375 204.507812 C 335.320312 206.140625 334.777344 207.777344 334.503906 209.410156 C 334.234375 211.042969 333.6875 212.402344 333.144531 214.039062 L 333.144531 214.308594 C 331.511719 218.664062 329.605469 222.75 327.699219 226.832031 C 325.792969 230.914062 323.886719 235 321.984375 238.808594 L 322.253906 238.539062 C 321.984375 238.808594 321.984375 239.355469 321.710938 239.628906 C 321.4375 239.898438 321.4375 240.171875 321.167969 240.714844 L 321.167969 240.445312 L 321.167969 241.261719 C 318.171875 247.792969 314.359375 253.785156 310.277344 259.773438 C 309.1875 261.132812 308.371094 262.496094 307.28125 263.855469 C 306.191406 265.21875 304.832031 266.851562 303.742188 268.210938 C 301.292969 270.933594 298.570312 273.382812 296.121094 275.835938 C 290.402344 281.277344 284.414062 286.722656 278.425781 291.894531 C 273.253906 296.523438 267.808594 300.605469 262.089844 304.691406 C 256.375 308.773438 250.113281 312.585938 243.851562 315.851562 C 242.21875 316.667969 240.585938 317.484375 238.953125 318.03125 C 237.320312 318.574219 235.683594 319.390625 233.78125 319.9375 C 230.242188 321.023438 226.703125 322.113281 223.164062 322.929688 C 216.355469 324.5625 209.550781 325.652344 202.472656 326.195312 C 198.117188 326.742188 193.761719 327.015625 189.40625 327.015625 L 189.132812 327.015625 C 188.589844 327.285156 188.042969 327.285156 187.5 327.285156 L 181.78125 327.285156 C 179.878906 327.015625 178.242188 327.015625 176.882812 327.015625 Z M 176.882812 327.015625 " fill-opacity="1" fill-rule="nonzero"/></g><g clip-path="url(#9f20684937)"><path fill="#000000" d="M 187.5 244.878906 C 130.699219 244.878906 81.839844 196.945312 72.851562 187.605469 C 81.839844 178.269531 130.699219 130.335938 187.5 130.335938 C 244.300781 130.335938 293.164062 178.269531 302.152344 187.605469 C 293.164062 196.945312 244.300781 244.878906 187.5 244.878906 Z M 307.640625 187.164062 C 307.621094 187.019531 307.601562 186.871094 307.546875 186.722656 C 307.472656 186.578125 307.382812 186.46875 307.308594 186.339844 C 307.253906 186.246094 307.214844 186.117188 307.125 186.042969 C 306.589844 185.4375 252.257812 125.628906 187.5 125.628906 C 122.746094 125.628906 68.414062 185.4375 67.878906 186.042969 C 67.785156 186.117188 67.75 186.246094 67.695312 186.339844 C 67.621094 186.46875 67.511719 186.578125 67.453125 186.722656 C 67.398438 186.871094 67.382812 187.019531 67.363281 187.164062 C 67.324219 187.3125 67.289062 187.460938 67.289062 187.605469 C 67.289062 187.753906 67.324219 187.902344 67.363281 188.046875 C 67.382812 188.195312 67.398438 188.34375 67.453125 188.488281 C 67.511719 188.636719 67.621094 188.746094 67.695312 188.875 C 67.75 188.96875 67.785156 189.09375 67.878906 189.167969 C 68.414062 189.777344 122.746094 249.585938 187.5 249.585938 C 252.257812 249.585938 306.589844 189.777344 307.125 189.167969 C 307.214844 189.09375 307.253906 188.96875 307.308594 188.875 C 307.382812 188.746094 307.472656 188.636719 307.546875 188.488281 C 307.601562 188.34375 307.621094 188.195312 307.640625 188.046875 C 307.675781 187.902344 307.710938 187.753906 307.710938 187.605469 C 307.710938 187.460938 307.675781 187.3125 307.640625 187.164062 " fill-opacity="1" fill-rule="nonzero"/></g><path fill="#000000" d="M 187.5 224.386719 C 167.1875 224.386719 150.648438 207.878906 150.648438 187.605469 C 150.648438 167.332031 167.1875 150.828125 187.5 150.828125 C 207.816406 150.828125 224.355469 167.332031 224.355469 187.605469 C 224.355469 207.878906 207.816406 224.386719 187.5 224.386719 Z M 187.5 146.121094 C 164.589844 146.121094 145.933594 164.742188 145.933594 187.605469 C 145.933594 210.472656 164.589844 229.089844 187.5 229.089844 C 210.414062 229.089844 229.070312 210.472656 229.070312 187.605469 C 229.070312 164.742188 210.414062 146.121094 187.5 146.121094 " fill-opacity="1" fill-rule="nonzero"/></svg>