<svg xmlns="http://www.w3.org/2000/svg" xmlns:xlink="http://www.w3.org/1999/xlink" width="500" zoomAndPan="magnify" viewBox="0 0 375 374.999991" height="500" preserveAspectRatio="xMidYMid meet" version="1.0"><path fill="#ff908f" d="M 306.757812 272.585938 C 306.789062 275.523438 306.03125 279.363281 305.242188 282.523438 C 299.734375 304.777344 275.273438 329.746094 240.839844 327.476562 C 209.636719 325.421875 184.222656 310.441406 184.222656 289.433594 C 184.222656 268.425781 209.574219 251.394531 240.839844 251.394531 C 272.109375 251.394531 306.558594 251.582031 306.757812 272.585938 Z M 306.757812 272.585938 " fill-opacity="1" fill-rule="nonzero"/><path fill="#8f0100" d="M 240.839844 254.921875 C 224.046875 254.921875 185.714844 259.566406 176.917969 259.566406 C 161.378906 259.566406 148.773438 269.320312 148.773438 281.351562 C 148.773438 287.140625 151.742188 292.371094 156.492188 296.269531 C 156.492188 296.269531 166.929688 306.738281 185.726562 301.714844 C 193.953125 299.515625 207.335938 283.1875 230.894531 280.597656 C 242.625 279.300781 264.609375 288.375 303.238281 288.59375 C 304.898438 285.027344 305.242188 282.546875 305.242188 282.546875 C 305.242188 261.519531 272.109375 254.921875 240.839844 254.921875 Z M 240.839844 254.921875 " fill-opacity="1" fill-rule="nonzero"/><path fill="#8f0100" d="M 305.242188 282.523438 C 305.242188 282.523438 327.898438 277.929688 341.984375 259.402344 C 358.40625 237.792969 356.25 214.671875 356.25 214.671875 C 372.886719 183.550781 351.0625 154.367188 351.0625 154.367188 C 348.894531 121.515625 328.582031 107.90625 328.582031 107.90625 C 315.398438 76.566406 286.226562 68.140625 286.226562 68.140625 C 263.320312 41.347656 222.6875 42.207031 222.6875 42.207031 C 222.6875 42.207031 184.617188 28.253906 132.351562 43.941406 C 123.710938 46.535156 94.75 52.582031 73.566406 65.546875 C 6.800781 106.421875 1.75 170.15625 2.683594 180.519531 C 7.859375 238.4375 48.492188 248.8125 74.425781 254.859375 C 80.472656 271.28125 102.738281 301.539062 142.714844 290.304688 C 191.992188 281.664062 212.738281 266.964844 224.84375 266.964844 C 236.953125 266.964844 270.667969 279.933594 305.242188 282.523438 Z M 305.242188 282.523438 " fill-opacity="1" fill-rule="nonzero"/><path fill="#ff908f" d="M 180.621094 189.402344 C 204.773438 176.382812 217.863281 177.59375 229.421875 178.644531 C 233.09375 178.976562 236.566406 179.234375 240.085938 179.214844 C 260.664062 178.746094 277.335938 170.074219 284.710938 161.683594 C 286.601562 159.523438 286.382812 156.257812 284.234375 154.359375 C 282.097656 152.46875 278.832031 152.667969 276.910156 154.824219 C 271.226562 161.296875 257.210938 168.445312 239.847656 168.839844 C 236.734375 168.933594 233.609375 168.621094 230.375 168.320312 C 217.976562 167.167969 202.582031 165.757812 175.695312 180.273438 C 168.796875 183.996094 159.335938 185.375 149.085938 186.414062 C 126.296875 153.519531 140.007812 124.867188 143.929688 118.039062 C 144.3125 118.0625 144.6875 118.183594 145.082031 118.183594 C 149.230469 118.183594 153.402344 117.167969 157.175781 115.03125 C 159.667969 113.621094 160.550781 110.457031 159.136719 107.96875 C 157.726562 105.476562 154.5625 104.59375 152.074219 106.007812 C 145.433594 109.761719 136.699219 107.59375 132.570312 101.160156 C 131.027344 98.746094 127.820312 98.039062 125.414062 99.59375 C 123.007812 101.140625 122.300781 104.347656 123.847656 106.753906 C 126.304688 110.601562 129.769531 113.496094 133.679688 115.4375 C 128.277344 126.410156 118.015625 155.269531 137.539062 187.542969 C 123.804688 188.890625 110.050781 190.832031 99.28125 197.773438 C 92.332031 202.253906 85.226562 208.808594 79.800781 216.351562 C 73.273438 215.230469 49.382812 209.347656 45.214844 182.835938 C 47.808594 180.820312 49.902344 178.164062 51.199219 174.886719 C 52.257812 172.222656 50.949219 169.214844 48.285156 168.15625 C 45.617188 167.097656 42.609375 168.402344 41.550781 171.070312 C 40.628906 173.40625 38.957031 175.105469 36.84375 175.851562 C 34.746094 176.597656 32.371094 176.351562 30.171875 175.125 C 27.652344 173.726562 24.507812 174.648438 23.117188 177.140625 C 21.726562 179.640625 22.628906 182.804688 25.128906 184.191406 C 28.078125 185.832031 31.230469 186.660156 34.363281 186.660156 C 34.746094 186.660156 35.109375 186.484375 35.492188 186.464844 C 40.433594 211.496094 60.214844 222.492188 74.207031 225.824219 C 72.382812 229.847656 71.148438 233.996094 70.773438 238.1875 C 70.527344 241.03125 72.632812 243.5625 75.484375 243.8125 L 75.953125 243.832031 C 78.605469 243.832031 80.878906 241.808594 81.117188 239.101562 C 82.238281 226.519531 94.242188 213.375 104.90625 206.476562 C 114.90625 200.035156 129.542969 198.675781 143.710938 197.355469 C 157.457031 196.101562 170.445312 194.898438 180.621094 189.402344 Z M 314.089844 173.796875 C 312.730469 176.308594 313.664062 179.460938 316.164062 180.820312 C 316.953125 181.257812 317.816406 181.464844 318.65625 181.464844 C 320.480469 181.464844 322.253906 180.5 323.199219 178.777344 C 323.394531 178.425781 342.308594 143 306.902344 119.191406 C 304.535156 117.613281 301.308594 118.226562 299.703125 120.601562 C 298.105469 122.976562 298.738281 126.203125 301.113281 127.800781 C 328.539062 146.246094 314.691406 172.679688 314.089844 173.796875 Z M 99.074219 90.042969 C 100.691406 90.042969 102.28125 89.292969 103.285156 87.882812 C 118.328125 66.960938 139.160156 74.117188 140.039062 74.449219 C 142.726562 75.425781 145.683594 74.054688 146.679688 71.378906 C 147.675781 68.691406 146.304688 65.714844 143.621094 64.71875 C 133.660156 61.027344 110.660156 59.863281 94.863281 81.835938 C 93.191406 84.148438 93.722656 87.394531 96.046875 89.066406 C 96.96875 89.730469 98.027344 90.042969 99.074219 90.042969 Z M 234.679688 70.457031 C 257.761719 68.578125 268.257812 85.3125 268.738281 86.097656 C 269.710938 87.738281 271.433594 88.652344 273.207031 88.652344 C 274.101562 88.652344 275.011719 88.421875 275.832031 87.933594 C 278.300781 86.484375 279.132812 83.308594 277.6875 80.839844 C 277.128906 79.894531 263.789062 57.832031 233.871094 60.113281 C 231.019531 60.332031 228.890625 62.832031 229.109375 65.695312 C 229.335938 68.546875 231.921875 70.714844 234.679688 70.457031 Z M 329.597656 222.027344 C 327.046875 221.878906 324.234375 223.902344 324.007812 226.765625 C 323.988281 226.953125 322.335938 244.597656 304.195312 250.5625 C 301.476562 251.457031 299.992188 254.382812 300.894531 257.109375 C 301.601562 259.289062 303.644531 260.679688 305.824219 260.679688 C 306.363281 260.679688 306.902344 260.59375 307.441406 260.417969 C 332.046875 252.347656 334.265625 228.632812 334.351562 227.628906 C 334.566406 224.765625 332.453125 222.253906 329.597656 222.027344 Z M 329.597656 222.027344 " fill-opacity="1" fill-rule="nonzero"/><path fill="#ff908f" d="M 72.839844 171.621094 C 72.09375 174.390625 73.730469 177.230469 76.5 177.980469 C 76.949219 178.105469 77.402344 178.15625 77.851562 178.15625 C 80.140625 178.15625 82.226562 176.628906 82.851562 174.316406 C 84.820312 166.941406 92.464844 162.210938 99.988281 163.796875 C 102.796875 164.367188 105.539062 162.59375 106.128906 159.785156 C 106.71875 156.984375 104.925781 154.234375 102.113281 153.640625 C 97.695312 152.707031 93.253906 153.144531 89.167969 154.535156 C 77.070312 133.847656 79.425781 113.453125 79.457031 113.238281 C 79.832031 110.40625 77.839844 107.800781 75.007812 107.40625 C 72.1875 107.0625 69.570312 109.003906 69.175781 111.835938 C 69.042969 112.84375 66.273438 135.863281 80.203125 159.699219 C 76.738281 162.824219 74.105469 166.898438 72.839844 171.621094 Z M 188.808594 145.996094 C 193.027344 142.085938 199.804688 142.160156 203.902344 146.152344 C 204.917969 147.128906 206.214844 147.617188 207.519531 147.617188 C 208.878906 147.617188 210.230469 147.085938 211.234375 146.039062 C 213.226562 143.984375 213.183594 140.695312 211.132812 138.703125 C 208.746094 136.390625 205.894531 134.84375 202.863281 133.878906 C 205.933594 123.339844 204.71875 118.664062 201.867188 109.894531 C 201.371094 108.371094 200.820312 106.671875 200.238281 104.730469 L 199.925781 103.691406 C 196.152344 91.160156 193.652344 82.894531 200.832031 71.222656 C 202.335938 68.785156 201.566406 65.589844 199.128906 64.085938 C 196.734375 62.59375 193.507812 63.328125 191.992188 65.789062 C 182.363281 81.429688 185.902344 93.144531 190 106.703125 L 190.3125 107.738281 C 190.921875 109.75 191.484375 111.515625 192.003906 113.101562 C 194.566406 120.996094 195.34375 123.640625 192.210938 133.183594 C 188.382812 133.902344 184.71875 135.632812 181.730469 138.414062 C 179.636719 140.363281 179.523438 143.652344 181.472656 145.746094 C 183.433594 147.84375 186.722656 147.945312 188.808594 145.996094 Z M 254.835938 115.03125 C 257.855469 115.03125 260.90625 114.398438 263.746094 113.050781 C 266.339844 111.824219 267.449219 108.734375 266.226562 106.140625 C 265.011719 103.546875 261.878906 102.46875 259.328125 103.660156 C 254.121094 106.109375 247.699219 103.984375 244.96875 98.921875 C 243.613281 96.390625 240.449219 95.464844 237.949219 96.792969 C 235.425781 98.144531 234.472656 101.296875 235.832031 103.816406 C 237.699219 107.304688 240.480469 110.050781 243.714844 111.960938 C 238.144531 125.5 241.308594 139.875 243.890625 147.5 C 244.617188 149.667969 246.640625 151.027344 248.808594 151.027344 C 249.359375 151.027344 249.910156 150.945312 250.46875 150.757812 C 253.1875 149.84375 254.636719 146.898438 253.714844 144.191406 C 251.972656 139.027344 248.589844 125.976562 253.695312 114.875 C 254.089844 114.898438 254.453125 115.03125 254.835938 115.03125 Z M 304.597656 212.84375 C 304.402344 209.992188 301.933594 207.742188 299.089844 208 C 288.570312 208.746094 279.609375 200.769531 278.890625 190.335938 C 278.683594 187.480469 276.144531 185.355469 273.363281 185.511719 C 270.511719 185.707031 268.351562 188.1875 268.539062 191.039062 C 268.964844 197.160156 271.296875 202.679688 274.847656 207.171875 C 266.507812 216.984375 255.582031 219.773438 249.492188 220.492188 C 244.109375 221.132812 239.398438 220.585938 233.953125 219.941406 C 228.964844 219.371094 223.320312 218.714844 216.339844 218.925781 L 216.285156 218.933594 C 216.078125 215.96875 215.375 211.640625 213.125 208.042969 C 211.609375 205.625 208.402344 204.886719 205.976562 206.402344 C 203.558594 207.917969 202.8125 211.125 204.335938 213.550781 C 205.726562 215.78125 205.984375 219.339844 205.984375 221.070312 C 200.757812 222.949219 196.234375 225.707031 192.148438 228.375 C 184.84375 233.125 179.085938 236.882812 170.425781 234.929688 C 162.582031 233.136719 154.730469 232.773438 148.070312 233.707031 C 147.03125 231.101562 145.394531 227.992188 142.863281 225.59375 C 140.777344 223.625 137.5 223.707031 135.527344 225.800781 C 133.566406 227.875 133.648438 231.164062 135.734375 233.136719 C 136.628906 233.976562 137.332031 235.199219 137.902344 236.425781 C 126.460938 241.132812 120.722656 249.007812 120.453125 249.390625 C 118.792969 251.714844 119.34375 254.921875 121.648438 256.589844 C 122.5625 257.246094 123.617188 257.566406 124.675781 257.566406 C 126.285156 257.566406 127.871094 256.828125 128.886719 255.441406 C 128.941406 255.355469 134.636719 247.730469 145.871094 244.652344 C 151.679688 243.054688 160.007812 243.1875 168.132812 245.035156 C 170.402344 245.554688 172.511719 245.730469 174.554688 245.761719 C 175.519531 248.023438 175.890625 250.710938 175.945312 251.707031 C 176.109375 254.464844 178.390625 256.601562 181.121094 256.601562 L 181.398438 256.589844 C 184.253906 256.4375 186.441406 254.019531 186.308594 251.164062 C 186.277344 250.648438 186.070312 247.578125 184.957031 244.050781 C 189.742188 242.316406 193.902344 239.609375 197.8125 237.066406 C 203.746094 233.199219 209.359375 229.535156 216.691406 229.296875 C 222.832031 229.078125 227.894531 229.671875 232.78125 230.242188 C 237.699219 230.8125 242.53125 231.1875 247.863281 230.875 C 248.808594 233.5 248.734375 237.003906 248.589844 238.179688 C 248.25 241.011719 250.25 243.601562 253.09375 243.976562 C 253.3125 244.007812 253.527344 244.019531 253.746094 244.019531 C 256.308594 244.019531 258.539062 242.121094 258.882812 239.503906 C 258.964844 238.863281 259.492188 234.195312 258.269531 229.328125 C 265.71875 227.328125 274.949219 222.980469 282.597656 214.070312 C 287.066406 216.808594 292.285156 218.414062 297.835938 218.414062 C 298.476562 218.414062 299.132812 218.394531 299.773438 218.355469 C 302.628906 218.167969 304.785156 215.707031 304.597656 212.84375 Z M 304.597656 212.84375 " fill-opacity="1" fill-rule="nonzero"/></svg>